<svg width="16" height="12" viewBox="0 0 16 12" fill="none" xmlns="http://www.w3.org/2000/svg">
<path d="M16 11.25C16 11.4489 15.9234 11.6397 15.787 11.7803C15.6506 11.921 15.4656 12 15.2727 12H6.54545C6.35257 12 6.16759 11.921 6.0312 11.7803C5.89481 11.6397 5.81818 11.4489 5.81818 11.25C5.81818 10.0565 6.27792 8.91193 7.09626 8.06802C7.9146 7.22411 9.02451 6.75 10.1818 6.75H11.6364C12.7937 6.75 13.9036 7.22411 14.7219 8.06802C15.5403 8.91193 16 10.0565 16 11.25ZM10.9091 0C10.3337 0 9.77128 0.175947 9.29289 0.505591C8.81449 0.835235 8.44162 1.30377 8.22144 1.85195C8.00126 2.40013 7.94365 3.00333 8.0559 3.58527C8.16815 4.16721 8.44521 4.70176 8.85205 5.12132C9.2589 5.54088 9.77725 5.8266 10.3416 5.94236C10.9059 6.05811 11.4908 5.9987 12.0224 5.77164C12.5539 5.54458 13.0083 5.16006 13.3279 4.66671C13.6476 4.17336 13.8182 3.59334 13.8182 3C13.8182 2.20435 13.5117 1.44129 12.9661 0.87868C12.4206 0.31607 11.6806 0 10.9091 0ZM4.36364 0C3.78827 0 3.22583 0.175947 2.74743 0.505591C2.26903 0.835235 1.89617 1.30377 1.67599 1.85195C1.4558 2.40013 1.3982 3.00333 1.51044 3.58527C1.62269 4.16721 1.89975 4.70176 2.3066 5.12132C2.71344 5.54088 3.23179 5.8266 3.7961 5.94236C4.36041 6.05811 4.94533 5.9987 5.4769 5.77164C6.00846 5.54458 6.4628 5.16006 6.78246 4.66671C7.10211 4.17336 7.27273 3.59334 7.27273 3C7.27273 2.20435 6.96623 1.44129 6.42067 0.87868C5.87511 0.31607 5.13518 0 4.36364 0V0ZM4.36364 11.25C4.36255 10.4622 4.51306 9.68202 4.80643 8.95464C5.0998 8.22726 5.53021 7.56713 6.07273 7.0125C5.62875 6.83964 5.1582 6.75072 4.68364 6.75H4.04364C2.97179 6.75198 1.94439 7.19196 1.18648 7.97355C0.428565 8.75515 0.0019226 9.81466 0 10.92V11.25C0 11.4489 0.0766231 11.6397 0.213013 11.7803C0.349403 11.921 0.534388 12 0.727273 12H4.49455C4.40987 11.7595 4.3656 11.5059 4.36364 11.25V11.25Z" fill="#BBCEF3"/>
</svg>
