<svg width="19" height="19" viewBox="0 0 19 19" fill="none" xmlns="http://www.w3.org/2000/svg">
<circle cx="9.5" cy="9.5" r="9" fill="white" stroke="#CDD5E6"/>
<path d="M9.10686 4.87581L4.67601 6.71532C4.42962 6.81764 4.43217 7.16885 4.68011 7.26745L9.12943 9.03775C9.52035 9.19331 9.95571 9.19331 10.3466 9.03775L14.796 7.26739C15.0439 7.16885 15.0466 6.81771 14.8 6.71539L10.3693 4.87575C9.96511 4.70792 9.51102 4.70792 9.10679 4.87575" fill="#FCB400"/>
<path d="M10.1328 10.0044V14.4269C10.1328 14.6372 10.3442 14.7813 10.5391 14.7038L15.497 12.773C15.5523 12.7509 15.5997 12.7128 15.6332 12.6634C15.6666 12.6141 15.6844 12.5557 15.6844 12.4961V8.07364C15.6844 7.8633 15.473 7.71926 15.2781 7.79677L10.3202 9.72761C10.2649 9.74962 10.2175 9.78777 10.1841 9.83714C10.1507 9.88651 10.1328 9.94481 10.1328 10.0045" fill="#18BFFF"/>
<path d="M8.97506 10.2326L7.50366 10.9454L7.35426 11.0179L4.24824 12.5111C4.05142 12.6064 3.80005 12.4624 3.80005 12.2429V8.09214C3.80005 8.01275 3.84062 7.94421 3.89503 7.89264C3.91736 7.87034 3.94268 7.85129 3.97027 7.83603C4.04443 7.79135 4.1503 7.77941 4.24031 7.81514L8.95033 9.68761C9.18975 9.7829 9.20855 10.1195 8.97506 10.2327" fill="#F82B60"/>
<path d="M8.97504 10.2326L7.50364 10.9454L3.89502 7.89258C3.91735 7.8703 3.94267 7.85127 3.97026 7.83603C4.04442 7.79135 4.15028 7.77941 4.2403 7.81514L8.95032 9.68761C9.18973 9.7829 9.20854 10.1195 8.97504 10.2327" fill="black" fill-opacity="0.25"/>
</svg>
