<svg width="18" height="21" viewBox="0 0 18 21" fill="none" xmlns="http://www.w3.org/2000/svg">
<path d="M16.1529 0H6.33459C5.84459 0 5.37467 0.218129 5.02819 0.606401C4.68171 0.994672 4.48706 1.52128 4.48706 2.07038V13.073C4.48706 13.6221 4.68171 14.1487 5.02819 14.537C5.37467 14.9252 5.84459 15.1434 6.33459 15.1434H16.1529C16.6429 15.1434 17.1128 14.9252 17.4593 14.537C17.8058 14.1487 18.0004 13.6221 18.0004 13.073V2.07038C18.0004 1.52128 17.8058 0.994672 17.4593 0.606401C17.1128 0.218129 16.6429 0 16.1529 0ZM16.4168 13.073C16.4168 13.1514 16.389 13.2267 16.3395 13.2821C16.29 13.3376 16.2229 13.3687 16.1529 13.3687H6.33459C6.26459 13.3687 6.19746 13.3376 6.14796 13.2821C6.09846 13.2267 6.07066 13.1514 6.07066 13.073V2.07038C6.07066 1.99194 6.09846 1.91671 6.14796 1.86124C6.19746 1.80577 6.26459 1.77461 6.33459 1.77461H16.1529C16.2229 1.77461 16.29 1.80577 16.3395 1.86124C16.389 1.91671 16.4168 1.99194 16.4168 2.07038V13.073Z" fill="#A3AFC9"/>
<path d="M1.84753 6.80296H2.42818C2.63818 6.80296 2.83957 6.70948 2.98807 6.54308C3.13656 6.37667 3.21998 6.15099 3.21998 5.91566C3.21998 5.68033 3.13656 5.45464 2.98807 5.28824C2.83957 5.12183 2.63818 5.02835 2.42818 5.02835H1.84753C1.35753 5.02835 0.887607 5.24648 0.541128 5.63475C0.19465 6.02302 0 6.54963 0 7.09873V18.1013C0 18.6504 0.19465 19.177 0.541128 19.5653C0.887607 19.9536 1.35753 20.1717 1.84753 20.1717H11.6658C12.1558 20.1717 12.6257 19.9536 12.9722 19.5653C13.3187 19.177 13.5133 18.6504 13.5133 18.1013V17.3915C13.5133 17.1562 13.4299 16.9305 13.2814 16.7641C13.1329 16.5977 12.9315 16.5042 12.7215 16.5042C12.5115 16.5042 12.3102 16.5977 12.1617 16.7641C12.0132 16.9305 11.9297 17.1562 11.9297 17.3915V18.1013C11.9297 18.1798 11.9019 18.255 11.8524 18.3105C11.8029 18.3659 11.7358 18.3971 11.6658 18.3971H1.84753C1.77753 18.3971 1.7104 18.3659 1.6609 18.3105C1.6114 18.255 1.5836 18.1798 1.5836 18.1013V7.09873C1.5836 7.02029 1.6114 6.94506 1.6609 6.88959C1.7104 6.83412 1.77753 6.80296 1.84753 6.80296Z" fill="#A3AFC9"/>
</svg>
