<svg width="12" height="12" viewBox="0 0 12 12" fill="none" xmlns="http://www.w3.org/2000/svg">
<path d="M4.4351 1.08173V5.55289C4.4351 5.83978 4.32113 6.11492 4.11826 6.31778C3.9154 6.52065 3.64026 6.63462 3.35337 6.63462H1.08173C0.794838 6.63462 0.519696 6.52065 0.316832 6.31778C0.113968 6.11492 0 5.83978 0 5.55289V1.08173C0 0.794838 0.113968 0.519696 0.316832 0.316832C0.519696 0.113968 0.794838 0 1.08173 0H3.35337C3.64026 0 3.9154 0.113968 4.11826 0.316832C4.32113 0.519696 4.4351 0.794838 4.4351 1.08173ZM3.35337 7.45673H1.08173C0.794838 7.45673 0.519696 7.5707 0.316832 7.77356C0.113968 7.97643 0 8.25157 0 8.53846V10.9183C0 11.2052 0.113968 11.4803 0.316832 11.6832C0.519696 11.886 0.794838 12 1.08173 12H3.35337C3.64026 12 3.9154 11.886 4.11826 11.6832C4.32113 11.4803 4.4351 11.2052 4.4351 10.9183V8.53846C4.4351 8.25157 4.32113 7.97643 4.11826 7.77356C3.9154 7.5707 3.64026 7.45673 3.35337 7.45673ZM10.9183 4.79567H6.33894C6.05205 4.79567 5.77691 4.90964 5.57404 5.1125C5.37118 5.31537 5.25721 5.59051 5.25721 5.8774V10.9183C5.25721 11.2052 5.37118 11.4803 5.57404 11.6832C5.77691 11.886 6.05205 12 6.33894 12H10.9183C11.2052 12 11.4803 11.886 11.6832 11.6832C11.886 11.4803 12 11.2052 12 10.9183V5.8774C12 5.59051 11.886 5.31537 11.6832 5.1125C11.4803 4.90964 11.2052 4.79567 10.9183 4.79567ZM10.9183 0H6.33894C6.05205 0 5.77691 0.113968 5.57404 0.316832C5.37118 0.519696 5.25721 0.794838 5.25721 1.08173V2.89183C5.25721 3.17872 5.37118 3.45386 5.57404 3.65673C5.77691 3.85959 6.05205 3.97356 6.33894 3.97356H10.9183C11.2052 3.97356 11.4803 3.85959 11.6832 3.65673C11.886 3.45386 12 3.17872 12 2.89183V1.08173C12 0.794838 11.886 0.519696 11.6832 0.316832C11.4803 0.113968 11.2052 0 10.9183 0Z" fill="#BBCEF3"/>
</svg>
