<svg width="140" height="26" viewBox="0 0 140 26" fill="none" xmlns="http://www.w3.org/2000/svg">
<path d="M34.3877 18.2171H37.8145C39.3116 18.2171 40.5759 17.7205 41.6073 16.7107C42.6553 15.7009 43.1709 14.2773 43.1709 12.4233C43.1709 10.5693 42.6553 9.14575 41.6073 8.13599C40.5759 7.12622 39.3116 6.62962 37.8145 6.62962H34.3877V18.2171ZM37.2822 8.35118C39.3283 8.35118 41.3078 9.26162 41.3078 12.4233C41.3078 15.5851 39.3283 16.4955 37.2822 16.4955H36.2175V8.35118H37.2822Z" fill="#25324B"/>
<path d="M44.6513 15.8168C44.6513 17.4721 45.7492 18.3495 47.2297 18.3495C48.3775 18.3495 49.2425 17.9356 49.8248 17.1245L49.9911 18.2171H51.455V13.0358C51.455 10.8342 50.3405 9.74167 48.1114 9.74167C46.5144 9.74167 45.3001 10.6356 44.9507 12.0426L46.5311 12.3737C46.8139 11.6288 47.3295 11.2646 48.0947 11.2646C49.0429 11.2646 49.725 11.7281 49.725 12.7213V13.0855H48.2777C46.0985 13.0855 44.6513 14.1118 44.6513 15.8168ZM46.4812 15.8168C46.4812 15.0222 47.1465 14.5256 48.2112 14.5256H49.725V14.7077C49.725 15.3864 49.5087 15.8996 49.0596 16.2803C48.6271 16.6445 48.1114 16.8266 47.5292 16.8266C46.8471 16.8266 46.4812 16.4127 46.4812 15.8168Z" fill="#25324B"/>
<path d="M54.1622 11.397V15.3699C54.1622 17.3397 55.2435 18.3495 56.907 18.3495C57.3894 18.3495 57.8385 18.2502 58.2544 18.0515L57.8052 16.5948C57.5557 16.7438 57.2896 16.8266 57.0068 16.8266C56.2582 16.8266 55.8922 16.3796 55.8922 15.4692V11.397H58.0714V9.8741H55.8922V6.49719L54.1622 7.57317V9.8741H52.7649V11.397H54.1622Z" fill="#25324B"/>
<path d="M59.4993 15.8168C59.4993 17.4721 60.5972 18.3495 62.0777 18.3495C63.2255 18.3495 64.0905 17.9356 64.6727 17.1245L64.8391 18.2171H66.303V13.0358C66.303 10.8342 65.1884 9.74167 62.9593 9.74167C61.3624 9.74167 60.148 10.6356 59.7987 12.0426L61.379 12.3737C61.6618 11.6288 62.1775 11.2646 62.9427 11.2646C63.8909 11.2646 64.5729 11.7281 64.5729 12.7213V13.0855H63.1257C60.9465 13.0855 59.4993 14.1118 59.4993 15.8168ZM61.3291 15.8168C61.3291 15.0222 61.9945 14.5256 63.0591 14.5256H64.5729V14.7077C64.5729 15.3864 64.3567 15.8996 63.9075 16.2803C63.475 16.6445 62.9593 16.8266 62.3771 16.8266C61.6951 16.8266 61.3291 16.4127 61.3291 15.8168Z" fill="#25324B"/>
<path d="M82.5467 10.0065C81.9478 7.77181 80.2843 6.49719 77.839 6.49719C76.3419 6.49719 75.061 7.0269 74.013 8.06977C72.965 9.11264 72.4493 10.5528 72.4493 12.4233C72.4493 14.2939 72.965 15.7506 74.013 16.7935C75.061 17.8363 76.3419 18.3495 77.839 18.3495C80.2843 18.3495 81.9478 17.0749 82.5467 14.8401L80.8167 14.4098C80.2178 15.9327 79.3694 16.6279 77.839 16.6279C75.7763 16.6279 74.3124 15.1381 74.3124 12.4233C74.3124 9.70857 75.7763 8.21875 77.839 8.21875C79.3694 8.21875 80.2178 8.914 80.8167 10.4369L82.5467 10.0065Z" fill="#25324B"/>
<path d="M85.0321 17.108C85.7806 17.9356 86.7954 18.3495 88.043 18.3495C89.2906 18.3495 90.2887 17.9356 91.0373 17.108C91.7858 16.2803 92.1684 15.254 92.1684 14.0456C92.1684 12.8372 91.7858 11.8109 91.0373 10.9832C90.2887 10.1555 89.2906 9.74167 88.043 9.74167C86.7954 9.74167 85.7806 10.1555 85.0321 10.9832C84.2835 11.8109 83.9175 12.8372 83.9175 14.0456C83.9175 15.254 84.2835 16.2803 85.0321 17.108ZM86.3462 12.0923C86.7621 11.546 87.3277 11.2646 88.043 11.2646C88.7583 11.2646 89.3239 11.546 89.7231 12.0923C90.139 12.6385 90.3386 13.2841 90.3386 14.0456C90.3386 14.807 90.139 15.4692 89.7231 16.0154C89.3239 16.5617 88.7583 16.8266 88.043 16.8266C87.3277 16.8266 86.7621 16.5617 86.3462 16.0154C85.947 15.4692 85.7474 14.807 85.7474 14.0456C85.7474 13.2841 85.947 12.6385 86.3462 12.0923Z" fill="#25324B"/>
<path d="M94.1988 18.2171H95.9288V15.0553C95.9288 12.6716 96.7772 11.2646 97.8918 11.2646C98.6403 11.2646 99.1227 11.7446 99.1227 12.622V18.2171H100.853V14.8733C100.853 12.6716 101.734 11.2646 102.816 11.2646C103.564 11.2646 104.047 11.7446 104.047 12.622V18.2171H105.777V12.2412C105.777 10.7349 104.895 9.74167 103.381 9.74167C102.3 9.74167 101.352 10.3542 100.77 11.4632C100.52 10.4204 99.5885 9.74167 98.4573 9.74167C97.4426 9.74167 96.6109 10.2548 95.9288 11.2977V9.8741H94.1988V18.2171Z" fill="#25324B"/>
<path d="M115.824 14.0456C115.824 11.3308 114.526 9.74167 112.081 9.74167C111.066 9.74167 110.118 10.2879 109.802 10.8342V9.8741H108.072V21.594H109.802V17.2901C110.218 17.886 111.066 18.3495 112.048 18.3495C114.51 18.3495 115.824 16.6941 115.824 14.0456ZM113.395 16.0817C112.996 16.5783 112.48 16.8266 111.848 16.8266C111.216 16.8266 110.7 16.5783 110.301 16.0817C109.902 15.5685 109.702 14.8898 109.702 14.0456C109.702 13.2014 109.902 12.5227 110.301 12.0261C110.7 11.5129 111.216 11.2646 111.848 11.2646C112.48 11.2646 112.996 11.5129 113.395 12.0261C113.794 12.5227 113.994 13.2014 113.994 14.0456C113.994 14.8898 113.794 15.5685 113.395 16.0817Z" fill="#25324B"/>
<path d="M117.283 15.8168C117.283 17.4721 118.381 18.3495 119.861 18.3495C121.009 18.3495 121.874 17.9356 122.456 17.1245L122.623 18.2171H124.087V13.0358C124.087 10.8342 122.972 9.74167 120.743 9.74167C119.146 9.74167 117.932 10.6356 117.582 12.0426L119.163 12.3737C119.445 11.6288 119.961 11.2646 120.726 11.2646C121.675 11.2646 122.357 11.7281 122.357 12.7213V13.0855H120.909C118.73 13.0855 117.283 14.1118 117.283 15.8168ZM119.113 15.8168C119.113 15.0222 119.778 14.5256 120.843 14.5256H122.357V14.7077C122.357 15.3864 122.14 15.8996 121.691 16.2803C121.259 16.6445 120.743 16.8266 120.161 16.8266C119.479 16.8266 119.113 16.4127 119.113 15.8168Z" fill="#25324B"/>
<path d="M128.907 9.74167C128.159 9.74167 127.543 9.97342 127.061 10.4369C126.578 10.8839 126.329 11.4467 126.329 12.1088C126.329 13.1351 126.928 13.8966 128.125 14.3932C128.392 14.5091 129.007 14.7243 129.257 14.8401C129.39 14.8898 129.539 14.9726 129.689 15.0719C130.005 15.254 130.122 15.4526 130.122 15.734C130.122 16.4624 129.739 16.8266 128.99 16.8266C128.209 16.8266 127.593 16.33 127.144 15.3202L125.68 16.1148C126.196 17.3232 127.327 18.3495 128.924 18.3495C129.805 18.3495 130.504 18.1012 131.036 17.588C131.569 17.0749 131.835 16.4458 131.835 15.7009C131.768 14.7905 131.452 14.2939 130.787 13.8966C130.321 13.5821 130.072 13.4993 129.489 13.2841C128.774 13.0193 128.491 12.8868 128.209 12.6054C128.059 12.4564 127.992 12.2744 127.992 12.0923C127.992 11.5626 128.358 11.2646 128.824 11.2646C129.406 11.2646 129.889 11.5129 130.288 12.0261L131.386 11.066C130.853 10.2548 129.922 9.74167 128.907 9.74167Z" fill="#25324B"/>
<path d="M136.299 9.74167C135.55 9.74167 134.935 9.97342 134.452 10.4369C133.97 10.8839 133.72 11.4467 133.72 12.1088C133.72 13.1351 134.319 13.8966 135.517 14.3932C135.783 14.5091 136.398 14.7243 136.648 14.8401C136.781 14.8898 136.931 14.9726 137.081 15.0719C137.397 15.254 137.513 15.4526 137.513 15.734C137.513 16.4624 137.13 16.8266 136.382 16.8266C135.6 16.8266 134.985 16.33 134.535 15.3202L133.071 16.1148C133.587 17.3232 134.718 18.3495 136.315 18.3495C137.197 18.3495 137.896 18.1012 138.428 17.588C138.96 17.0749 139.226 16.4458 139.226 15.7009C139.16 14.7905 138.844 14.2939 138.178 13.8966C137.713 13.5821 137.463 13.4993 136.881 13.2841C136.166 13.0193 135.883 12.8868 135.6 12.6054C135.45 12.4564 135.384 12.2744 135.384 12.0923C135.384 11.5626 135.75 11.2646 136.215 11.2646C136.798 11.2646 137.28 11.5129 137.679 12.0261L138.777 11.066C138.245 10.2548 137.313 9.74167 136.299 9.74167Z" fill="#25324B"/>
<path fill-rule="evenodd" clip-rule="evenodd" d="M4.94529 0H20.216C22.9472 0 25.1613 2.21706 25.1613 4.95196V21.048C25.1613 23.7829 22.9472 26 20.216 26H4.9453C2.21409 26 0 23.7829 0 21.048V4.95196C0 2.21707 2.21408 0 4.94529 0ZM4.94529 0.927933C2.72588 0.927933 0.926685 2.72955 0.926685 4.95196V21.048C0.926685 23.2705 2.72588 25.0721 4.9453 25.0721H20.216C22.4354 25.0721 24.2346 23.2704 24.2346 21.048V4.95196C24.2346 2.72955 22.4354 0.927933 20.216 0.927933H4.94529Z" fill="#0FAF93"/>
<path d="M9.2401 14.632L10.332 13.4408L9.14173 9.28764L12.9487 10.5862L14.0407 9.39496L8.57117 7.54913L7.5481 8.66521L9.2401 14.632Z" fill="#0FAF93"/>
<path d="M15.0819 10.5308L13.99 11.722L15.1803 15.8751L11.3733 14.5766L10.2813 15.7678L15.7508 17.6137L16.7739 16.4976L15.0819 10.5308Z" fill="#0FAF93"/>
</svg>
