<svg width="17" height="18" viewBox="0 0 17 18" fill="none" xmlns="http://www.w3.org/2000/svg">
<path fill-rule="evenodd" clip-rule="evenodd" d="M14.4727 4.05L13.7276 16.3123C13.6699 17.2609 12.9051 18 11.981 18H4.76904C3.84493 18 3.08009 17.2609 3.02245 16.3123L2.27734 4.05H1.15625C0.793813 4.05 0.5 3.74779 0.5 3.375C0.5 3.00221 0.793813 2.7 1.15625 2.7H15.5938C15.9562 2.7 16.25 3.00221 16.25 3.375C16.25 3.74779 15.9562 4.05 15.5938 4.05H14.4727ZM13.0759 4.05H3.67414L4.30438 15.7996C4.32997 16.2766 4.71353 16.65 5.17806 16.65H11.5719C12.0365 16.65 12.42 16.2766 12.4456 15.7996L13.0759 4.05ZM8.375 5.4C8.71327 5.4 8.9875 5.68206 8.9875 6.03V14.67C8.9875 15.0179 8.71327 15.3 8.375 15.3C8.03673 15.3 7.7625 15.0179 7.7625 14.67V6.03C7.7625 5.68206 8.03673 5.4 8.375 5.4ZM5.75 5.4C6.09268 5.4 6.37475 5.67724 6.39031 6.02935L6.77417 14.7156C6.7878 15.024 6.55578 15.2854 6.25593 15.2994C6.24771 15.2998 6.23948 15.3 6.23125 15.3C5.91225 15.3 5.6489 15.0435 5.63152 14.7159L5.17086 6.02907C5.15341 5.70008 5.39856 5.41883 5.71841 5.40089C5.72893 5.4003 5.73946 5.4 5.75 5.4ZM11 5.4C11.3203 5.4 11.58 5.66709 11.58 5.99657C11.58 6.00741 11.5797 6.01824 11.5791 6.02907L11.1209 14.6709C11.1021 15.0238 10.8185 15.3 10.475 15.3C10.1547 15.3 9.895 15.0329 9.895 14.7034C9.895 14.6926 9.89529 14.6818 9.89586 14.6709L10.3541 6.02907C10.3729 5.67623 10.6565 5.4 11 5.4ZM6.625 0H10.125C11.0915 0 11.875 0.805887 11.875 1.8V2.7H4.875V1.8C4.875 0.805887 5.6585 0 6.625 0ZM6.7125 1.35C6.42255 1.35 6.1875 1.59177 6.1875 1.89V2.7H10.5625V1.89C10.5625 1.59177 10.3274 1.35 10.0375 1.35H6.7125Z" fill="#A3AFC9"/>
</svg>
