<svg width="19" height="10" viewBox="0 0 19 10" fill="none" xmlns="http://www.w3.org/2000/svg">
<path d="M7 8.5C7 7.67157 6.32843 7 5.5 7C4.67157 7 4 7.67157 4 8.5C4 9.32843 4.67157 10 5.5 10C6.32843 10 7 9.32843 7 8.5Z" fill="#A3AFC9"/>
<path d="M7 1.5C7 0.671573 6.32843 -3.40197e-07 5.5 -3.03986e-07C4.67157 -2.67774e-07 4 0.671573 4 1.5C4 2.32843 4.67157 3 5.5 3C6.32843 3 7 2.32843 7 1.5Z" fill="#A3AFC9"/>
<path d="M13 8.5C13 7.67157 12.3284 7 11.5 7C10.6716 7 10 7.67157 10 8.5C10 9.32843 10.6716 10 11.5 10C12.3284 10 13 9.32843 13 8.5Z" fill="#A3AFC9"/>
<path d="M13 1.5C13 0.671573 12.3284 -3.40197e-07 11.5 -3.03986e-07C10.6716 -2.67774e-07 10 0.671573 10 1.5C10 2.32843 10.6716 3 11.5 3C12.3284 3 13 2.32843 13 1.5Z" fill="#A3AFC9"/>
<path d="M19 8.5C19 7.67157 18.3284 7 17.5 7C16.6716 7 16 7.67157 16 8.5C16 9.32843 16.6716 10 17.5 10C18.3284 10 19 9.32843 19 8.5Z" fill="#A3AFC9"/>
<path d="M19 1.5C19 0.671573 18.3284 -3.40197e-07 17.5 -3.03986e-07C16.6716 -2.67774e-07 16 0.671573 16 1.5C16 2.32843 16.6716 3 17.5 3C18.3284 3 19 2.32843 19 1.5Z" fill="#A3AFC9"/>
</svg>
