<svg width="21" height="21" viewBox="0 0 21 21" fill="none" xmlns="http://www.w3.org/2000/svg">
<path d="M8.10511 3.02052C8.10511 2.7702 8.20294 2.53013 8.37708 2.35312C8.55122 2.17611 8.7874 2.07667 9.03367 2.07667H20.0714C20.3177 2.07667 20.5539 2.17611 20.728 2.35312C20.9022 2.53013 21 2.7702 21 3.02052C21 3.27085 20.9022 3.51092 20.728 3.68793C20.5539 3.86494 20.3177 3.96438 20.0714 3.96438H9.03367C8.7874 3.96438 8.55122 3.86494 8.37708 3.68793C8.20294 3.51092 8.10511 3.27085 8.10511 3.02052ZM5.67136 0.27674C5.49723 0.099795 5.26109 0.000392515 5.01487 0.000392515C4.76865 0.000392515 4.53251 0.099795 4.35838 0.27674L2.97111 1.68591L1.5857 0.27674C1.49949 0.189047 1.39713 0.119472 1.28447 0.0719888C1.1718 0.0245056 1.05104 4.38815e-05 0.929075 5.90645e-08C0.682756 -8.84444e-05 0.446491 0.099288 0.272256 0.276268C0.0980203 0.453248 8.71273e-05 0.693335 5.8107e-08 0.943711C-8.70111e-05 1.19409 0.0976794 1.43424 0.271792 1.61135L1.65813 3.02052L0.271792 4.4297C0.0976794 4.6068 -8.70111e-05 4.84696 5.8107e-08 5.09734C8.71273e-05 5.34771 0.0980203 5.5878 0.272256 5.76478C0.446491 5.94176 0.682756 6.04114 0.929075 6.04105C1.17539 6.04096 1.41159 5.94141 1.5857 5.76431L2.97111 4.35513L4.35745 5.76431C4.53156 5.94141 4.76776 6.04096 5.01408 6.04105C5.26039 6.04114 5.49666 5.94176 5.67089 5.76478C5.84513 5.5878 5.94306 5.34771 5.94315 5.09734C5.94324 4.84696 5.84547 4.6068 5.67136 4.4297L4.28409 3.02052L5.67136 1.61135C5.84544 1.43435 5.94323 1.19432 5.94323 0.944045C5.94323 0.693769 5.84544 0.453739 5.67136 0.27674ZM20.0724 9.6275H9.03367C8.7874 9.6275 8.55122 9.72694 8.37708 9.90395C8.20294 10.081 8.10511 10.321 8.10511 10.5714C8.10511 10.8217 8.20294 11.0618 8.37708 11.2388C8.55122 11.4158 8.7874 11.5152 9.03367 11.5152H20.0714C20.3177 11.5152 20.5539 11.4158 20.728 11.2388C20.9022 11.0618 21 10.8217 21 10.5714C21 10.321 20.9022 10.081 20.728 9.90395C20.5539 9.72694 20.3177 9.6275 20.0714 9.6275H20.0724ZM20.0724 17.1783H9.03367C8.7874 17.1783 8.55122 17.2778 8.37708 17.4548C8.20294 17.6318 8.10511 17.8719 8.10511 18.1222C8.10511 18.3725 8.20294 18.6126 8.37708 18.7896C8.55122 18.9666 8.7874 19.066 9.03367 19.066H20.0714C20.3177 19.066 20.5539 18.9666 20.728 18.7896C20.9022 18.6126 21 18.3725 21 18.1222C21 17.8719 20.9022 17.6318 20.728 17.4548C20.5539 17.2778 20.3177 17.1783 20.0714 17.1783H20.0724ZM5.80136 10.5232C5.80136 11.1019 5.63253 11.6676 5.31624 12.1488C4.99994 12.63 4.55037 13.005 4.02439 13.2264C3.49841 13.4479 2.91963 13.5058 2.36125 13.3929C1.80287 13.28 1.28997 13.0014 0.887397 12.5922C0.484827 12.183 0.210674 11.6616 0.099605 11.094C-0.0114638 10.5265 0.0455407 9.93816 0.26341 9.40351C0.481279 8.86886 0.850227 8.41189 1.3236 8.09038C1.79697 7.76888 2.35351 7.59727 2.92283 7.59727C3.68626 7.59727 4.41843 7.90554 4.95825 8.45426C5.49808 9.00298 5.80136 9.74721 5.80136 10.5232ZM3.94424 10.5232C3.94424 10.3179 3.88433 10.1171 3.7721 9.94641C3.65987 9.77567 3.50034 9.64259 3.3137 9.56401C3.12706 9.48543 2.92169 9.46487 2.72356 9.50493C2.52542 9.54499 2.34342 9.64387 2.20058 9.78907C2.05773 9.93427 1.96045 10.1193 1.92104 10.3207C1.88163 10.5221 1.90185 10.7308 1.97916 10.9205C2.05647 11.1103 2.18739 11.2724 2.35536 11.3865C2.52333 11.5006 2.72081 11.5615 2.92283 11.5615C3.05696 11.5615 3.18978 11.5346 3.3137 11.4824C3.43763 11.4303 3.55023 11.3538 3.64507 11.2574C3.73992 11.161 3.81516 11.0465 3.86649 10.9205C3.91782 10.7946 3.94424 10.6596 3.94424 10.5232ZM5.80136 18.0741C5.80136 18.6528 5.63253 19.2185 5.31624 19.6996C4.99994 20.1808 4.55037 20.5558 4.02439 20.7773C3.49841 20.9987 2.91963 21.0567 2.36125 20.9438C1.80287 20.8309 1.28997 20.5522 0.887397 20.143C0.484827 19.7338 0.210674 19.2125 0.099605 18.6449C-0.0114638 18.0773 0.0455407 17.489 0.26341 16.9543C0.481279 16.4197 0.850227 15.9627 1.3236 15.6412C1.79697 15.3197 2.35351 15.1481 2.92283 15.1481C3.68626 15.1481 4.41843 15.4564 4.95825 16.0051C5.49808 16.5538 5.80136 17.298 5.80136 18.0741ZM3.94424 18.0741C3.94424 17.8687 3.88433 17.668 3.7721 17.4972C3.65987 17.3265 3.50034 17.1934 3.3137 17.1148C3.12706 17.0363 2.92169 17.0157 2.72356 17.0558C2.52542 17.0958 2.34342 17.1947 2.20058 17.3399C2.05773 17.4851 1.96045 17.6701 1.92104 17.8715C1.88163 18.0729 1.90185 18.2817 1.97916 18.4714C2.05647 18.6611 2.18739 18.8232 2.35536 18.9373C2.52333 19.0514 2.72081 19.1123 2.92283 19.1123C3.05696 19.1123 3.18978 19.0854 3.3137 19.0333C3.43763 18.9811 3.55023 18.9046 3.64507 18.8082C3.73992 18.7118 3.81516 18.5973 3.86649 18.4714C3.91782 18.3454 3.94424 18.2104 3.94424 18.0741Z" fill="#A3AFC9"/>
</svg>
