<svg width="21" height="12" viewBox="0 0 21 12" fill="none" xmlns="http://www.w3.org/2000/svg">
<path d="M20.8435 5.54152C17.9233 1.76077 14.6366 0 10.4999 0C6.36319 0 3.07646 1.76077 0.156263 5.54152C-0.0520875 5.81182 -0.0520875 6.18825 0.156263 6.45855C3.07646 10.2392 6.36319 12 10.4999 12C14.6366 12 17.9233 10.2392 20.8435 6.45847C21.0519 6.18825 21.0519 5.81175 20.8435 5.54152ZM10.4999 10.5C6.98426 10.5 4.25194 9.10732 1.70786 6C4.25194 2.89268 6.98426 1.5 10.4999 1.5C14.0155 1.5 16.7478 2.89268 19.2919 6C16.7478 9.10732 14.0155 10.5 10.4999 10.5Z" fill="#A3AFC9"/>
<path d="M10.5 3C8.8458 3 7.5 4.3458 7.5 6C7.5 7.6542 8.8458 9 10.5 9C12.1542 9 13.5 7.6542 13.5 6C13.5 4.3458 12.1542 3 10.5 3ZM10.5 7.5C9.67275 7.5 9 6.82725 9 6C9 5.17275 9.67275 4.5 10.5 4.5C11.3273 4.5 12 5.17275 12 6C12 6.82725 11.3273 7.5 10.5 7.5Z" fill="#A3AFC9"/>
</svg>
