<svg width="13" height="13" viewBox="0 0 13 13" fill="none" xmlns="http://www.w3.org/2000/svg">
<path d="M9.29222 1.58885C7.17163 -0.529617 3.71103 -0.529617 1.59044 1.58885C-0.530148 3.70732 -0.530148 7.16446 1.59044 9.28293C3.48987 11.1805 6.44308 11.3884 8.56367 9.89378L11.3998 12.7271C11.7641 13.091 12.3625 13.091 12.7268 12.7271C13.0911 12.3632 13.0911 11.7653 12.7268 11.4014L9.89067 8.55511C11.3868 6.43664 11.1916 3.48638 9.29222 1.58885ZM8.0693 8.06123C6.61221 9.51687 4.25744 9.51687 2.81336 8.06123C1.35627 6.6056 1.35627 4.25319 2.81336 2.81055C4.27045 1.36791 6.62522 1.35491 8.0693 2.81055C9.51339 4.25319 9.51339 6.6056 8.0693 8.06123Z" fill="#A9BCE1"/>
</svg>
